<svg width="28" height="32" viewBox="0 0 28 32" fill="none" xmlns="http://www.w3.org/2000/svg">
<path d="M26.4444 9.37049L17.1111 1.18833C16.2556 0.423072 15.1479 0 14 0C12.8522 0 11.7445 0.423072 10.889 1.18833L1.55569 9.37049C1.0616 9.81238 0.667321 10.3545 0.399101 10.9606C0.130881 11.5668 -0.00512172 12.2232 0.000147456 12.886V26.4815C0.000147456 27.7192 0.491809 28.9061 1.36697 29.7813C2.24214 30.6565 3.42911 31.1481 4.66678 31.1481H23.3333C24.571 31.1481 25.758 30.6565 26.6331 29.7813C27.5083 28.9061 27.9999 27.7192 27.9999 26.4815V12.8705C28.003 12.2102 27.8659 11.5569 27.5978 10.9535C27.3296 10.3502 26.9365 9.81064 26.4444 9.37049ZM17.1111 28.037H10.889V20.2593C10.889 19.8467 11.0528 19.4511 11.3446 19.1594C11.6363 18.8676 12.0319 18.7038 12.4445 18.7038H15.5556C15.9681 18.7038 16.3638 18.8676 16.6555 19.1594C16.9472 19.4511 17.1111 19.8467 17.1111 20.2593V28.037ZM24.8889 26.4815C24.8889 26.894 24.725 27.2897 24.4333 27.5814C24.1415 27.8731 23.7459 28.037 23.3333 28.037H20.2222V20.2593C20.2222 19.0216 19.7306 17.8347 18.8554 16.9595C17.9802 16.0843 16.7933 15.5927 15.5556 15.5927H12.4445C11.2068 15.5927 10.0199 16.0843 9.14469 16.9595C8.26953 17.8347 7.77787 19.0216 7.77787 20.2593V28.037H4.66678C4.25422 28.037 3.85857 27.8731 3.56685 27.5814C3.27512 27.2897 3.11124 26.894 3.11124 26.4815V12.8705C3.11152 12.6496 3.15883 12.4313 3.25002 12.2302C3.34121 12.029 3.47419 11.8496 3.64012 11.7038L12.9734 3.5372C13.2573 3.28782 13.6222 3.15028 14 3.15028C14.3779 3.15028 14.7428 3.28782 15.0267 3.5372L24.36 11.7038C24.5259 11.8496 24.6589 12.029 24.7501 12.2302C24.8413 12.4313 24.8886 12.6496 24.8889 12.8705V26.4815Z" fill="#21577E"/>
</svg>
