<svg width="30" height="31" viewBox="0 0 30 31" fill="none" xmlns="http://www.w3.org/2000/svg">
<path d="M14.9902 15.0224C17.2796 15.0224 19.1355 13.1623 19.1355 10.8676C19.1355 8.57304 17.2796 6.71289 14.9902 6.71289C12.7009 6.71289 10.845 8.57304 10.845 10.8676C10.845 13.1623 12.7009 15.0224 14.9902 15.0224Z" stroke="#21577E" stroke-width="2"/>
<path d="M23.2808 26.4478C23.0598 22.2431 21.8302 19.177 14.9902 19.177C8.15034 19.177 6.92075 22.2431 6.69971 26.4478" stroke="#21577E" stroke-width="2" stroke-linecap="round"/>
<path d="M7.99514 2.87593C10.0529 1.68284 12.4421 1 14.9903 1C22.7168 1 28.9806 7.27799 28.9806 15.0223C28.9806 22.7665 22.7168 29.0446 14.9903 29.0446C7.26366 29.0446 1 22.7665 1 15.0223C1 12.4683 1.68128 10.0736 2.87165 8.01115" stroke="#21577E" stroke-width="2" stroke-linecap="round"/>
</svg>
