<svg width="23" height="19" viewBox="0 0 23 19" fill="none" xmlns="http://www.w3.org/2000/svg">
<path d="M4.05816 2.35256C4.41693 2.35256 4.76099 2.22863 5.01468 2.00803C5.26836 1.78744 5.41088 1.48825 5.41088 1.17628C5.41088 0.86431 5.26836 0.565119 5.01468 0.344524C4.76099 0.123929 4.41693 0 4.05816 0H1.35272C0.993957 0 0.649887 0.123929 0.396203 0.344524C0.142519 0.565119 0 0.86431 0 1.17628V17.6442C0 17.9561 0.142519 18.2553 0.396203 18.4759C0.649887 18.6965 0.993957 18.8205 1.35272 18.8205H4.05816C4.41693 18.8205 4.76099 18.6965 5.01468 18.4759C5.26836 18.2553 5.41088 17.9561 5.41088 17.6442C5.41088 17.3322 5.26836 17.033 5.01468 16.8124C4.76099 16.5918 4.41693 16.4679 4.05816 16.4679H2.70544V2.35256H4.05816ZM22.7528 8.72799L18.9381 4.02287C18.7312 3.76928 18.4173 3.59723 18.0649 3.54433C17.7126 3.49143 17.3505 3.56198 17.0578 3.74057C16.9115 3.82971 16.787 3.94317 16.6914 4.0744C16.5958 4.20563 16.531 4.35202 16.5008 4.50513C16.4706 4.65824 16.4756 4.81503 16.5155 4.96645C16.5554 5.11787 16.6294 5.26093 16.7332 5.38736L19.0598 8.23395H8.11632C7.75756 8.23395 7.41349 8.35788 7.15981 8.57848C6.90612 8.79907 6.7636 9.09826 6.7636 9.41023C6.7636 9.7222 6.90612 10.0214 7.15981 10.242C7.41349 10.4626 7.75756 10.5865 8.11632 10.5865H18.9381L16.5032 13.4096C16.3966 13.5332 16.3191 13.6738 16.275 13.8234C16.2309 13.9731 16.2211 14.1288 16.2462 14.2817C16.2714 14.4346 16.3309 14.5817 16.4214 14.7147C16.5119 14.8476 16.6316 14.9637 16.7737 15.0564C17.0079 15.2091 17.2927 15.2916 17.5854 15.2916C17.7954 15.2916 18.0025 15.2491 18.1903 15.1674C18.3782 15.0858 18.5415 14.9672 18.6675 14.8211L22.7257 10.116C22.8989 9.91705 22.9949 9.67535 22.9998 9.42583C23.0047 9.17632 22.9182 8.93193 22.7528 8.72799Z" fill="#21577E"/>
</svg>
