<svg width="19" height="19" viewBox="0 0 19 19" fill="none" xmlns="http://www.w3.org/2000/svg">
<path d="M8.06846 0.000257416C5.48476 0.00136181 3.05782 1.23962 1.54012 3.3309C0.0222471 5.42241 -0.403234 8.11409 0.395667 10.5716C1.19479 13.0293 3.12136 14.956 5.57871 15.7545C8.0359 16.5528 10.7267 16.1263 12.817 14.6073L16.8373 18.6288C17.1573 18.9489 17.6238 19.0739 18.061 18.9569C18.4982 18.8396 18.8396 18.4981 18.9569 18.0607C19.0739 17.6234 18.9489 17.1567 18.629 16.8366L14.6087 12.815C15.7829 11.2006 16.3169 9.20806 16.1078 7.22258C15.8985 5.2371 14.9609 3.39982 13.4759 2.06568C11.9912 0.731549 10.0644 -0.00439084 8.06875 1.97103e-05L8.06846 0.000257416ZM8.06846 13.6164C6.5992 13.6164 5.1902 13.0326 4.15129 11.9934C3.11237 10.9541 2.52878 9.54469 2.52878 8.07496C2.52878 6.60523 3.11237 5.19577 4.15129 4.15652C5.1902 3.11727 6.5992 2.5335 8.06846 2.5335C9.53772 2.5335 10.9467 3.11727 11.9856 4.15652C13.0245 5.19577 13.6081 6.60523 13.6081 8.07496C13.6064 9.54401 13.0223 10.9526 11.9837 11.9914C10.9452 13.0304 9.5371 13.6147 8.06846 13.6164Z" fill="#21577E"/>
</svg>
