<svg width="32" height="33" viewBox="0 0 32 33" fill="none" xmlns="http://www.w3.org/2000/svg">
<mask id="path-1-inside-1_147_728" fill="white">
<path d="M11.2252 0C8.56576 0 6.39554 2.15275 6.39554 4.80763V7.47854H1.59888C0.722696 7.47854 0 8.20289 0 9.08108V30.4483C0 31.3265 0.722696 32.0509 1.59888 32.0509H31.4447C31.4671 32.0523 31.4895 32.0523 31.5119 32.0509C31.5225 32.0512 31.5332 32.0512 31.5439 32.0509C31.6674 32.0275 31.7788 31.961 31.8582 31.8632C31.9375 31.7655 31.9799 31.6427 31.9777 31.5167V17.628C31.9777 17.4863 31.9215 17.3504 31.8216 17.2503C31.7216 17.1501 31.5861 17.0938 31.4447 17.0938H23.4503V9.08108C23.4503 8.20289 22.7276 7.47854 21.8514 7.47854H18.1537V5.87599C18.1555 4.77393 17.7792 3.70475 17.0879 2.84773C16.3967 1.9907 15.4324 1.39793 14.3569 1.16879C13.4863 0.415301 12.3745 0.000498729 11.2242 0H11.2252ZM11.2252 1.06836C11.5727 1.06836 11.9074 1.11644 12.2251 1.20191C10.1113 1.71045 8.52739 3.61107 8.52739 5.87599V7.47854H7.46146V4.80763C7.46146 2.72967 9.13496 1.06836 11.2252 1.06836ZM13.3571 2.13673C13.5383 2.13673 13.7163 2.14634 13.89 2.16984C14.5669 2.84505 14.956 3.76812 14.956 4.80763V7.47854H9.59331V5.87599C9.59331 3.79803 11.2668 2.13673 13.3571 2.13673ZM15.6552 2.938C16.1041 3.28366 16.467 3.72878 16.7155 4.2385C16.964 4.74821 17.0915 5.30868 17.0878 5.87599V7.47854H16.0219V4.80763C16.0271 4.16608 15.9017 3.5301 15.6552 2.938ZM1.59888 8.5469H3.29797C3.23531 8.71818 3.20145 8.89869 3.19777 9.08108C3.19564 9.31933 3.03788 9.58749 2.69785 9.74881C2.35676 9.9112 1.90694 9.9112 1.56584 9.74881C1.22581 9.58535 1.06806 9.31933 1.06592 9.08108C1.06592 9.00523 1.07338 8.9454 1.09897 8.88023C1.12242 8.82361 1.19277 8.75844 1.23221 8.71357C1.28017 8.66656 1.33454 8.60673 1.39849 8.58002C1.46231 8.55529 1.53053 8.54402 1.59888 8.5469ZM4.79665 8.5469H8.52739V10.2499C7.90382 10.4689 7.46146 11.0565 7.46146 11.752C7.46146 12.6302 8.18309 13.3545 9.06035 13.3545C9.9376 13.3545 10.6592 12.6302 10.6592 11.752C10.6592 11.0565 10.2169 10.4689 9.59331 10.2499V8.5469H17.0878V10.2499C16.7696 10.3514 16.4917 10.5516 16.2942 10.8215C16.0967 11.0915 15.9898 11.4173 15.9888 11.752C15.9888 12.6302 16.7105 13.3545 17.5877 13.3545C18.465 13.3545 19.1866 12.6302 19.1866 11.752C19.1866 11.0682 18.7624 10.4774 18.1537 10.2499V8.5469H21.8514C22.1563 8.5469 22.3844 8.77553 22.3844 9.08108V17.0938H9.06035C8.919 17.0938 8.78344 17.1501 8.68349 17.2503C8.58354 17.3504 8.52739 17.4863 8.52739 17.628V30.9825H4.79665C4.7283 30.9854 4.66008 30.9741 4.59626 30.9494C4.49752 30.9083 4.41319 30.8388 4.35398 30.7495C4.29477 30.6603 4.26334 30.5555 4.26369 30.4483V9.08108C4.26369 9.00523 4.27115 8.9454 4.29674 8.88023C4.33772 8.78127 4.40713 8.69674 4.49614 8.63739C4.58515 8.57805 4.68975 8.54655 4.79665 8.5469ZM1.06592 10.6836C1.07978 10.6911 1.08511 10.7103 1.09897 10.7167C1.74705 11.0255 2.51664 11.0255 3.16473 10.7167C3.17858 10.7103 3.18391 10.6911 3.19777 10.6836V30.4483C3.19777 30.631 3.24041 30.818 3.29797 30.9825H1.59888C1.52842 30.9843 1.45833 30.9717 1.39287 30.9454C1.32742 30.9192 1.26796 30.8799 1.21812 30.83C1.16827 30.78 1.12908 30.7204 1.10292 30.6548C1.07675 30.5892 1.06417 30.519 1.06592 30.4483V10.6836ZM9.06035 11.2178C9.36094 11.2178 9.59331 11.4507 9.59331 11.752C9.59331 12.0533 9.36094 12.2862 9.06035 12.2862C8.99008 12.2872 8.92032 12.274 8.85521 12.2476C8.79009 12.2211 8.73094 12.1818 8.68125 12.132C8.63156 12.0822 8.59234 12.0229 8.56591 11.9576C8.53948 11.8923 8.52638 11.8224 8.52739 11.752C8.52739 11.4507 8.75976 11.2178 9.06035 11.2178ZM17.5877 11.2178C17.8883 11.2178 18.1207 11.4507 18.1207 11.752C18.1207 12.0533 17.8883 12.2862 17.5877 12.2862C17.5175 12.2872 17.4477 12.274 17.3826 12.2476C17.3175 12.2211 17.2583 12.1818 17.2086 12.132C17.1589 12.0822 17.1197 12.0229 17.0933 11.9576C17.0669 11.8923 17.0538 11.8224 17.0548 11.752C17.0548 11.4507 17.2871 11.2178 17.5877 11.2178ZM9.59331 18.1622H30.9118V30.9825H9.59331V18.1622ZM16.5218 19.2305C15.6446 19.2305 14.9229 19.9538 14.9229 20.8331C14.9229 21.5168 15.3472 22.1076 15.9558 22.3352V24.0382C15.9558 26.693 18.093 28.8458 20.7525 28.8458C23.4119 28.8458 25.5822 26.693 25.5822 24.0382V22.3352C26.2057 22.1162 26.6481 21.5286 26.6481 20.8331C26.6481 19.9538 25.9265 19.2305 25.0492 19.2305C24.1719 19.2305 23.4503 19.9538 23.4503 20.8331C23.4503 21.5286 23.8927 22.1162 24.5162 22.3352V24.0382C24.5162 26.1161 22.8427 27.7774 20.7525 27.7774C20.2615 27.7811 19.7747 27.6869 19.3204 27.5003C18.8661 27.3137 18.4534 27.0384 18.1062 26.6905C17.759 26.3425 17.4844 25.9288 17.2982 25.4735C17.112 25.0181 17.018 24.5302 17.0217 24.0382V22.3352C17.34 22.2336 17.6178 22.0335 17.8153 21.7635C18.0128 21.4936 18.1197 21.1678 18.1207 20.8331C18.1207 19.9538 17.3991 19.2305 16.5218 19.2305ZM16.5218 20.2989C16.8224 20.2989 17.0548 20.5318 17.0548 20.8331C17.0548 21.1343 16.8224 21.3673 16.5218 21.3673C16.4515 21.3683 16.3818 21.3551 16.3167 21.3286C16.2516 21.3022 16.1924 21.2628 16.1427 21.213C16.093 21.1632 16.0538 21.1039 16.0274 21.0387C16.0009 20.9734 15.9878 20.9035 15.9888 20.8331C15.9888 20.5318 16.2212 20.2989 16.5218 20.2989ZM25.0492 20.2989C25.3498 20.2989 25.5822 20.5318 25.5822 20.8331C25.5822 21.1343 25.3498 21.3673 25.0492 21.3673C24.9789 21.3683 24.9092 21.3551 24.8441 21.3286C24.7789 21.3022 24.7198 21.2628 24.6701 21.213C24.6204 21.1632 24.5812 21.1039 24.5548 21.0387C24.5283 20.9734 24.5152 20.9035 24.5162 20.8331C24.5162 20.5318 24.7486 20.2989 25.0492 20.2989Z"/>
</mask>
<path d="M11.2252 0C8.56576 0 6.39554 2.15275 6.39554 4.80763V7.47854H1.59888C0.722696 7.47854 0 8.20289 0 9.08108V30.4483C0 31.3265 0.722696 32.0509 1.59888 32.0509H31.4447C31.4671 32.0523 31.4895 32.0523 31.5119 32.0509C31.5225 32.0512 31.5332 32.0512 31.5439 32.0509C31.6674 32.0275 31.7788 31.961 31.8582 31.8632C31.9375 31.7655 31.9799 31.6427 31.9777 31.5167V17.628C31.9777 17.4863 31.9215 17.3504 31.8216 17.2503C31.7216 17.1501 31.5861 17.0938 31.4447 17.0938H23.4503V9.08108C23.4503 8.20289 22.7276 7.47854 21.8514 7.47854H18.1537V5.87599C18.1555 4.77393 17.7792 3.70475 17.0879 2.84773C16.3967 1.9907 15.4324 1.39793 14.3569 1.16879C13.4863 0.415301 12.3745 0.000498729 11.2242 0H11.2252ZM11.2252 1.06836C11.5727 1.06836 11.9074 1.11644 12.2251 1.20191C10.1113 1.71045 8.52739 3.61107 8.52739 5.87599V7.47854H7.46146V4.80763C7.46146 2.72967 9.13496 1.06836 11.2252 1.06836ZM13.3571 2.13673C13.5383 2.13673 13.7163 2.14634 13.89 2.16984C14.5669 2.84505 14.956 3.76812 14.956 4.80763V7.47854H9.59331V5.87599C9.59331 3.79803 11.2668 2.13673 13.3571 2.13673ZM15.6552 2.938C16.1041 3.28366 16.467 3.72878 16.7155 4.2385C16.964 4.74821 17.0915 5.30868 17.0878 5.87599V7.47854H16.0219V4.80763C16.0271 4.16608 15.9017 3.5301 15.6552 2.938ZM1.59888 8.5469H3.29797C3.23531 8.71818 3.20145 8.89869 3.19777 9.08108C3.19564 9.31933 3.03788 9.58749 2.69785 9.74881C2.35676 9.9112 1.90694 9.9112 1.56584 9.74881C1.22581 9.58535 1.06806 9.31933 1.06592 9.08108C1.06592 9.00523 1.07338 8.9454 1.09897 8.88023C1.12242 8.82361 1.19277 8.75844 1.23221 8.71357C1.28017 8.66656 1.33454 8.60673 1.39849 8.58002C1.46231 8.55529 1.53053 8.54402 1.59888 8.5469ZM4.79665 8.5469H8.52739V10.2499C7.90382 10.4689 7.46146 11.0565 7.46146 11.752C7.46146 12.6302 8.18309 13.3545 9.06035 13.3545C9.9376 13.3545 10.6592 12.6302 10.6592 11.752C10.6592 11.0565 10.2169 10.4689 9.59331 10.2499V8.5469H17.0878V10.2499C16.7696 10.3514 16.4917 10.5516 16.2942 10.8215C16.0967 11.0915 15.9898 11.4173 15.9888 11.752C15.9888 12.6302 16.7105 13.3545 17.5877 13.3545C18.465 13.3545 19.1866 12.6302 19.1866 11.752C19.1866 11.0682 18.7624 10.4774 18.1537 10.2499V8.5469H21.8514C22.1563 8.5469 22.3844 8.77553 22.3844 9.08108V17.0938H9.06035C8.919 17.0938 8.78344 17.1501 8.68349 17.2503C8.58354 17.3504 8.52739 17.4863 8.52739 17.628V30.9825H4.79665C4.7283 30.9854 4.66008 30.9741 4.59626 30.9494C4.49752 30.9083 4.41319 30.8388 4.35398 30.7495C4.29477 30.6603 4.26334 30.5555 4.26369 30.4483V9.08108C4.26369 9.00523 4.27115 8.9454 4.29674 8.88023C4.33772 8.78127 4.40713 8.69674 4.49614 8.63739C4.58515 8.57805 4.68975 8.54655 4.79665 8.5469ZM1.06592 10.6836C1.07978 10.6911 1.08511 10.7103 1.09897 10.7167C1.74705 11.0255 2.51664 11.0255 3.16473 10.7167C3.17858 10.7103 3.18391 10.6911 3.19777 10.6836V30.4483C3.19777 30.631 3.24041 30.818 3.29797 30.9825H1.59888C1.52842 30.9843 1.45833 30.9717 1.39287 30.9454C1.32742 30.9192 1.26796 30.8799 1.21812 30.83C1.16827 30.78 1.12908 30.7204 1.10292 30.6548C1.07675 30.5892 1.06417 30.519 1.06592 30.4483V10.6836ZM9.06035 11.2178C9.36094 11.2178 9.59331 11.4507 9.59331 11.752C9.59331 12.0533 9.36094 12.2862 9.06035 12.2862C8.99008 12.2872 8.92032 12.274 8.85521 12.2476C8.79009 12.2211 8.73094 12.1818 8.68125 12.132C8.63156 12.0822 8.59234 12.0229 8.56591 11.9576C8.53948 11.8923 8.52638 11.8224 8.52739 11.752C8.52739 11.4507 8.75976 11.2178 9.06035 11.2178ZM17.5877 11.2178C17.8883 11.2178 18.1207 11.4507 18.1207 11.752C18.1207 12.0533 17.8883 12.2862 17.5877 12.2862C17.5175 12.2872 17.4477 12.274 17.3826 12.2476C17.3175 12.2211 17.2583 12.1818 17.2086 12.132C17.1589 12.0822 17.1197 12.0229 17.0933 11.9576C17.0669 11.8923 17.0538 11.8224 17.0548 11.752C17.0548 11.4507 17.2871 11.2178 17.5877 11.2178ZM9.59331 18.1622H30.9118V30.9825H9.59331V18.1622ZM16.5218 19.2305C15.6446 19.2305 14.9229 19.9538 14.9229 20.8331C14.9229 21.5168 15.3472 22.1076 15.9558 22.3352V24.0382C15.9558 26.693 18.093 28.8458 20.7525 28.8458C23.4119 28.8458 25.5822 26.693 25.5822 24.0382V22.3352C26.2057 22.1162 26.6481 21.5286 26.6481 20.8331C26.6481 19.9538 25.9265 19.2305 25.0492 19.2305C24.1719 19.2305 23.4503 19.9538 23.4503 20.8331C23.4503 21.5286 23.8927 22.1162 24.5162 22.3352V24.0382C24.5162 26.1161 22.8427 27.7774 20.7525 27.7774C20.2615 27.7811 19.7747 27.6869 19.3204 27.5003C18.8661 27.3137 18.4534 27.0384 18.1062 26.6905C17.759 26.3425 17.4844 25.9288 17.2982 25.4735C17.112 25.0181 17.018 24.5302 17.0217 24.0382V22.3352C17.34 22.2336 17.6178 22.0335 17.8153 21.7635C18.0128 21.4936 18.1197 21.1678 18.1207 20.8331C18.1207 19.9538 17.3991 19.2305 16.5218 19.2305ZM16.5218 20.2989C16.8224 20.2989 17.0548 20.5318 17.0548 20.8331C17.0548 21.1343 16.8224 21.3673 16.5218 21.3673C16.4515 21.3683 16.3818 21.3551 16.3167 21.3286C16.2516 21.3022 16.1924 21.2628 16.1427 21.213C16.093 21.1632 16.0538 21.1039 16.0274 21.0387C16.0009 20.9734 15.9878 20.9035 15.9888 20.8331C15.9888 20.5318 16.2212 20.2989 16.5218 20.2989ZM25.0492 20.2989C25.3498 20.2989 25.5822 20.5318 25.5822 20.8331C25.5822 21.1343 25.3498 21.3673 25.0492 21.3673C24.9789 21.3683 24.9092 21.3551 24.8441 21.3286C24.7789 21.3022 24.7198 21.2628 24.6701 21.213C24.6204 21.1632 24.5812 21.1039 24.5548 21.0387C24.5283 20.9734 24.5152 20.9035 24.5162 20.8331C24.5162 20.5318 24.7486 20.2989 25.0492 20.2989Z" fill="#21577E" stroke="#21577E" stroke-width="10" mask="url(#path-1-inside-1_147_728)"/>
</svg>
