<svg width="231" height="743" viewBox="0 0 231 743" fill="none" xmlns="http://www.w3.org/2000/svg">
<path d="M120.53 602.415C122.39 601.695 123.62 600.915 124.22 600.075C124.76 599.235 125.03 597.705 125.03 595.485L128 595.485L128 619.785L125.03 619.785L125.03 615.735C125.03 614.895 124.82 614.265 124.4 613.845C123.98 613.425 123.44 613.215 122.78 613.215C122.3 613.215 121.79 613.305 121.25 613.485L106.13 618.705L106.13 637.065L121.52 642.105C122.12 642.285 122.66 642.375 123.14 642.375C124.4 642.375 125.03 641.565 125.03 639.945L125.03 635.535L128 635.535L128 654.255L125.03 654.255C125.03 651.915 124.7 650.295 124.04 649.395C123.32 648.495 122 647.685 120.08 646.965L68.6 628.245L68.6 620.595L120.53 602.415ZM103.16 619.695L79.22 627.885L79.22 628.155L103.16 636.075L103.16 619.695Z" fill="#21577E"/>
<path d="M120.53 261.676C122.39 260.956 123.62 260.176 124.22 259.336C124.76 258.496 125.03 256.966 125.03 254.746L128 254.746L128 279.046L125.03 279.046L125.03 274.996C125.03 274.156 124.82 273.526 124.4 273.106C123.98 272.686 123.44 272.476 122.78 272.476C122.3 272.476 121.79 272.566 121.25 272.746L106.13 277.966L106.13 296.326L121.52 301.366C122.12 301.546 122.66 301.636 123.14 301.636C124.4 301.636 125.03 300.826 125.03 299.206L125.03 294.796L128 294.796L128 313.516L125.03 313.516C125.03 311.176 124.7 309.556 124.04 308.656C123.32 307.756 122 306.946 120.08 306.226L68.6 287.506L68.6 279.856L120.53 261.676ZM103.16 278.956L79.22 287.146L79.22 287.416L103.16 295.336L103.16 278.956Z" fill="#21577E"/>
<path d="M125.03 435.562C125.03 433.342 124.91 431.752 124.67 430.792C124.37 429.832 123.89 429.202 123.23 428.902C122.57 428.602 121.49 428.452 119.99 428.452L76.7 428.452C75.14 428.452 74.03 428.602 73.37 428.902C72.71 429.202 72.26 429.832 72.02 430.792C71.72 431.752 71.57 433.342 71.57 435.562L68.6 435.562L68.6 407.752C68.6 401.272 69.86 396.382 72.38 393.082C74.9 389.782 78.5 388.132 83.18 388.132C87.38 388.132 90.77 389.392 93.35 391.912C95.87 394.432 97.46 397.822 98.12 402.082L98.3 402.082C99.2 398.302 100.88 395.632 103.34 394.072C105.74 392.512 109.19 391.402 113.69 390.742L115.49 390.472C118.37 390.052 120.68 389.182 122.42 387.862C124.16 386.482 125.03 384.622 125.03 382.282L128 382.282L128 396.952C126.68 398.632 123.92 399.922 119.72 400.822L107.3 403.522C104.9 404.002 103.16 404.962 102.08 406.402C100.94 407.842 100.37 409.882 100.37 412.522L100.37 417.472L119.99 417.472C121.49 417.472 122.6 417.322 123.32 417.022C123.98 416.722 124.43 416.092 124.67 415.132C124.91 414.172 125.03 412.612 125.03 410.452L128 410.452L128 435.562L125.03 435.562ZM96.77 412.072C96.77 407.872 95.75 404.782 93.71 402.802C91.67 400.762 88.58 399.742 84.44 399.742C80.24 399.742 77.15 400.762 75.17 402.802C73.13 404.842 72.11 407.932 72.11 412.072C72.11 414.292 72.41 415.762 73.01 416.482C73.55 417.142 74.48 417.472 75.8 417.472L96.77 417.472L96.77 412.072Z" fill="#21577E"/>
<path d="M125.03 517.273C125.03 515.053 124.91 513.463 124.67 512.503C124.37 511.543 123.89 510.913 123.23 510.613C122.57 510.313 121.49 510.163 119.99 510.163L76.7 510.163C75.14 510.163 74.03 510.313 73.37 510.613C72.65 510.913 72.17 511.543 71.93 512.503C71.69 513.463 71.57 515.053 71.57 517.273L68.6 517.273L68.6 473.263L83.63 473.263L83.63 475.603C80.57 476.323 78.26 477.103 76.7 477.943C75.08 478.783 73.91 480.043 73.19 481.723C72.47 483.343 72.11 485.683 72.11 488.743L72.11 495.763C72.11 497.143 72.32 498.073 72.74 498.553C73.16 498.973 73.97 499.183 75.17 499.183L94.97 499.183L94.97 490.273C94.97 488.173 94.76 486.613 94.34 485.593C93.86 484.513 93.11 483.763 92.09 483.343C91.07 482.863 89.48 482.413 87.32 481.993L87.32 479.743L106.4 479.743L106.4 481.993C104.24 482.413 102.68 482.863 101.72 483.343C100.76 483.763 100.07 484.513 99.65 485.593C99.17 486.613 98.93 488.173 98.93 490.273L98.93 499.183L118.55 499.183C120.35 499.183 121.64 498.973 122.42 498.553C123.2 498.073 123.74 497.113 124.04 495.673C124.34 494.173 124.49 491.713 124.49 488.293C124.49 484.873 124.07 482.203 123.23 480.283C122.39 478.303 121.07 476.773 119.27 475.693C117.47 474.613 114.86 473.593 111.44 472.633L111.44 470.383L128 471.463L128 517.273L125.03 517.273Z" fill="#21577E"/>
<path d="M127.03 573.076C127.03 570.856 126.91 569.266 126.67 568.306C126.37 567.346 125.89 566.716 125.23 566.416C124.57 566.116 123.49 565.966 121.99 565.966L78.7 565.966C77.14 565.966 76.03 566.116 75.37 566.416C74.71 566.716 74.26 567.346 74.02 568.306C73.72 569.266 73.57 570.856 73.57 573.076L70.6 573.076L70.6 547.516L73.57 547.516C73.57 549.916 73.69 551.626 73.93 552.646C74.17 553.606 74.65 554.236 75.37 554.536C76.03 554.836 77.14 554.986 78.7 554.986L119.74 554.986C121.9 554.986 123.46 554.716 124.42 554.176C125.32 553.576 125.89 552.676 126.13 551.476C126.31 550.276 126.4 548.206 126.4 545.266C126.4 541.846 126.01 539.206 125.23 537.346C124.45 535.426 123.19 533.926 121.45 532.846C119.65 531.766 117.04 530.776 113.62 529.876L113.62 527.536L130 528.526L130 573.076L127.03 573.076Z" fill="#21577E"/>
<path d="M125.03 355.844C125.03 353.624 124.91 352.034 124.67 351.074C124.37 350.114 123.89 349.484 123.23 349.184C122.57 348.884 121.49 348.734 119.99 348.734L76.79 348.734C75.23 348.734 74.12 348.884 73.46 349.184C72.74 349.484 72.26 350.114 72.02 351.074C71.72 352.034 71.57 353.624 71.57 355.844L68.6 355.844L68.6 330.734L71.57 330.734C71.57 332.954 71.72 334.544 72.02 335.504C72.26 336.464 72.74 337.094 73.46 337.394C74.12 337.634 75.23 337.754 76.79 337.754L119.99 337.754C121.49 337.754 122.6 337.604 123.32 337.304C123.98 337.004 124.43 336.374 124.67 335.414C124.91 334.454 125.03 332.894 125.03 330.734L128 330.734L128 355.844L125.03 355.844ZM45.11 343.964C43.91 343.424 43.07 342.824 42.59 342.164C42.11 341.444 41.87 340.634 41.87 339.734C41.87 338.594 42.26 337.604 43.04 336.764C43.82 335.924 44.75 335.504 45.83 335.504C46.49 335.504 47.12 335.654 47.72 335.954C48.26 336.194 49.07 336.764 50.15 337.664L60.32 347.024L60.32 350.984L45.11 343.964Z" fill="#21577E"/>
<path d="M102.8 687.296C102.8 702.696 98.45 714.646 89.75 723.146C81.05 731.546 68.8 735.746 53 735.746C42.3 735.746 33 733.796 25.1 729.896C17.1 725.896 10.95 720.246 6.65 712.946C2.34999 705.546 0.199991 696.796 0.199991 686.696C0.199991 682.196 0.599992 678.496 1.39999 675.596C2.1 672.696 3.05 669.696 4.24999 666.596C4.45 666.096 4.74999 665.296 5.14999 664.196C5.54999 662.996 5.74999 661.946 5.74999 661.046C5.74999 659.446 5.04999 658.346 3.64999 657.746L1.99999 656.996L1.99999 653.246L30.65 651.746L30.65 655.496C24.05 656.796 18.35 659.746 13.55 664.346C8.65 668.946 6.19999 675.396 6.19999 683.696C6.19999 695.596 10.95 703.846 20.45 708.446C29.85 712.946 40.15 715.196 51.35 715.196C59.35 715.196 66.8 714.096 73.7 711.896C80.5 709.596 86.05 706.146 90.35 701.546C94.55 696.846 96.65 691.046 96.65 684.146C96.65 681.546 96.35 678.896 95.75 676.196C95.15 673.496 94.4 671.146 93.5 669.146L69.35 669.146C67.05 669.146 65.3 669.396 64.1 669.896C62.9 670.396 62.05 671.396 61.55 672.896C60.95 674.396 60.65 676.646 60.65 679.646L60.65 682.346L56 682.346L56 641.996L60.65 641.996L60.65 644.846C60.65 647.346 61.3 648.996 62.6 649.796C63.8 650.496 66.05 650.846 69.35 650.846L101 650.846L101 654.746C98 655.446 96.5 657.096 96.5 659.696C96.5 660.596 96.7 661.546 97.1 662.546C97.4 663.546 97.8 664.596 98.3 665.696C99.7 668.796 100.8 671.896 101.6 674.996C102.4 678.096 102.8 682.196 102.8 687.296Z" fill="#EE0C68"/>
<path d="M194.38 445.391C197.86 449.991 199.6 455.511 199.6 461.951C199.6 468.351 197.54 473.511 193.42 477.431C189.3 481.351 184.16 483.311 178 483.311C171.84 483.311 166.72 481.431 162.64 477.671C158.52 473.871 156.46 468.771 156.46 462.371C156.46 459.411 156.86 456.451 157.66 453.491C158.46 450.531 159.28 448.291 160.12 446.771H167.8L167.68 447.431C164.08 448.431 161.54 450.171 160.06 452.651C158.58 455.091 157.84 458.331 157.84 462.371C157.84 467.491 159.7 471.391 163.42 474.071C167.1 476.751 171.92 478.091 177.88 478.091C183.84 478.091 188.66 476.671 192.34 473.831C196.02 470.991 197.86 467.011 197.86 461.891C197.86 458.211 197.42 455.151 196.54 452.711C195.62 450.231 194.3 447.791 192.58 445.391H194.38ZM156.46 424.816C156.46 418.376 158.44 413.236 162.4 409.396C166.32 405.516 171.42 403.576 177.7 403.576C183.94 403.576 189.16 405.456 193.36 409.216C197.52 412.936 199.6 417.996 199.6 424.396C199.6 430.796 197.5 435.956 193.3 439.876C189.1 443.756 183.88 445.696 177.64 445.696C171.36 445.696 166.26 443.836 162.34 440.116C158.42 436.356 156.46 431.256 156.46 424.816ZM198.22 424.456C198.22 419.336 196.38 415.456 192.7 412.816C188.98 410.136 184.1 408.796 178.06 408.796C172.02 408.796 167.14 410.196 163.42 412.996C159.7 415.796 157.84 419.756 157.84 424.876C157.84 429.956 159.68 433.836 163.36 436.516C167.04 439.156 171.92 440.476 178 440.476C184.04 440.476 188.92 439.076 192.64 436.276C196.36 433.476 198.22 429.536 198.22 424.456ZM199 373.908V402.588L198.28 402.468C198.28 401.508 198.24 400.748 198.16 400.188C198.08 399.588 197.86 399.048 197.5 398.568C197.14 398.088 196.74 397.748 196.3 397.548C195.82 397.308 195.04 397.108 193.96 396.948C192.56 396.748 189.72 396.648 185.44 396.648H170.56C164.6 396.648 160.98 396.928 159.7 397.488C158.58 398.008 157.94 398.888 157.78 400.128C157.7 400.728 157.66 401.508 157.66 402.468L157 402.588V386.448L157.66 386.568C157.66 388.568 158.04 390.028 158.8 390.948C159.64 391.948 163.56 392.448 170.56 392.448H186.34C190.66 392.448 193.54 392.308 194.98 392.028C196.38 391.748 197.32 391.088 197.8 390.048C197.8 379.728 195.34 374.568 190.42 374.568L190.3 373.908H199ZM199 343.385V373.625L198.28 373.505C198.28 371.505 197.9 370.045 197.14 369.125C196.3 368.125 192.4 367.625 185.44 367.625H170.56C166.28 367.625 163.36 367.765 161.8 368.045C160.2 368.285 159.2 368.645 158.8 369.125C158.04 370.045 157.66 371.505 157.66 373.505L157 373.625V345.605H165.64L165.52 346.325C162.84 346.325 160.98 347.745 159.94 350.585C158.9 353.385 158.38 357.685 158.38 363.485H177.28C177.28 359.645 177.08 356.885 176.68 355.205C176.28 353.525 175.68 352.445 174.88 351.965C174.04 351.485 172.66 351.245 170.74 351.245L170.62 350.585H185.2L185.08 351.245C183.12 351.245 181.74 351.485 180.94 351.965C180.14 352.445 179.56 353.525 179.2 355.205C178.8 356.885 178.6 359.645 178.6 363.485H186.34C190.58 363.485 193.4 363.345 194.8 363.065C196.2 362.745 197.14 362.065 197.62 361.025C197.62 349.745 195.22 344.105 190.42 344.105L190.3 343.385H199ZM194.38 302.933C197.86 307.533 199.6 313.053 199.6 319.493C199.6 325.893 197.54 331.053 193.42 334.973C189.3 338.893 184.16 340.853 178 340.853C171.84 340.853 166.72 338.973 162.64 335.213C158.52 331.413 156.46 326.313 156.46 319.913C156.46 316.953 156.86 313.993 157.66 311.033C158.46 308.073 159.28 305.833 160.12 304.313H167.8L167.68 304.973C164.08 305.973 161.54 307.713 160.06 310.193C158.58 312.633 157.84 315.873 157.84 319.913C157.84 325.033 159.7 328.933 163.42 331.613C167.1 334.293 171.92 335.633 177.88 335.633C183.84 335.633 188.66 334.213 192.34 331.373C196.02 328.533 197.86 324.553 197.86 319.433C197.86 315.753 197.42 312.693 196.54 310.253C195.62 307.773 194.3 305.333 192.58 302.933H194.38ZM194.38 264.418C197.86 269.018 199.6 274.538 199.6 280.978C199.6 287.378 197.54 292.538 193.42 296.458C189.3 300.378 184.16 302.338 178 302.338C171.84 302.338 166.72 300.458 162.64 296.698C158.52 292.898 156.46 287.798 156.46 281.398C156.46 278.438 156.86 275.478 157.66 272.518C158.46 269.558 159.28 267.318 160.12 265.798H167.8L167.68 266.458C164.08 267.458 161.54 269.198 160.06 271.678C158.58 274.118 157.84 277.358 157.84 281.398C157.84 286.518 159.7 290.418 163.42 293.098C167.1 295.778 171.92 297.118 177.88 297.118C183.84 297.118 188.66 295.698 192.34 292.858C196.02 290.018 197.86 286.038 197.86 280.918C197.86 277.238 197.42 274.178 196.54 271.738C195.62 269.258 194.3 266.818 192.58 264.418H194.38ZM170.56 253.623H185.44C189.72 253.623 192.64 253.503 194.2 253.263C195.76 252.983 196.74 252.603 197.14 252.123C197.9 251.203 198.28 249.743 198.28 247.743L199 247.623V263.823L198.28 263.703C198.28 262.703 198.24 261.923 198.16 261.363C198.08 260.803 197.86 260.283 197.5 259.803C197.14 259.283 196.74 258.923 196.3 258.723C195.82 258.483 195.04 258.283 193.96 258.123C192.56 257.923 189.72 257.823 185.44 257.823H170.56C166.4 257.823 163.5 257.943 161.86 258.183C160.22 258.423 159.2 258.783 158.8 259.263C158.04 260.223 157.66 261.703 157.66 263.703L157 263.823V247.623L157.66 247.743C157.66 249.743 158.04 251.203 158.8 252.123C159.64 253.123 163.56 253.623 170.56 253.623ZM156.46 225.836C156.46 219.396 158.44 214.256 162.4 210.416C166.32 206.536 171.42 204.596 177.7 204.596C183.94 204.596 189.16 206.476 193.36 210.236C197.52 213.956 199.6 219.016 199.6 225.416C199.6 231.816 197.5 236.976 193.3 240.896C189.1 244.776 183.88 246.716 177.64 246.716C171.36 246.716 166.26 244.856 162.34 241.136C158.42 237.376 156.46 232.276 156.46 225.836ZM198.22 225.476C198.22 220.356 196.38 216.476 192.7 213.836C188.98 211.156 184.1 209.816 178.06 209.816C172.02 209.816 167.14 211.216 163.42 214.016C159.7 216.816 157.84 220.776 157.84 225.896C157.84 230.976 159.68 234.856 163.36 237.536C167.04 240.176 171.92 241.496 178 241.496C184.04 241.496 188.92 240.096 192.64 237.296C196.36 234.496 198.22 230.556 198.22 225.476ZM170.5 166.048H199.3V167.908L163.6 196.168H185.32C189.32 196.168 192.2 195.988 193.96 195.628C195.72 195.268 196.88 194.668 197.44 193.828C198 192.988 198.28 191.608 198.28 189.688L199 189.568V204.328L198.28 204.208C198.28 202.288 198 200.908 197.44 200.068C196.88 199.228 195.72 198.628 193.96 198.268C192.2 197.868 189.32 197.668 185.32 197.668H170.5C166.5 197.668 163.64 197.868 161.92 198.268C160.16 198.628 159.02 199.228 158.5 200.068C157.94 200.868 157.66 202.248 157.66 204.208L157 204.328V196.168L192.7 167.548H170.5C166.54 167.548 163.68 167.748 161.92 168.148C160.16 168.508 159.02 169.108 158.5 169.948C157.94 170.788 157.66 172.188 157.66 174.148L157 174.268V159.388L157.66 159.508C157.66 161.468 157.94 162.868 158.5 163.708C159.02 164.548 160.16 165.148 161.92 165.508C163.68 165.868 166.54 166.048 170.5 166.048ZM170.56 148.039H185.44C189.72 148.039 192.64 147.919 194.2 147.679C195.76 147.399 196.74 147.019 197.14 146.539C197.9 145.619 198.28 144.159 198.28 142.159L199 142.039V158.239L198.28 158.119C198.28 157.119 198.24 156.339 198.16 155.779C198.08 155.219 197.86 154.699 197.5 154.219C197.14 153.699 196.74 153.339 196.3 153.139C195.82 152.899 195.04 152.699 193.96 152.539C192.56 152.339 189.72 152.239 185.44 152.239H170.56C166.4 152.239 163.5 152.359 161.86 152.599C160.22 152.839 159.2 153.199 158.8 153.679C158.04 154.639 157.66 156.119 157.66 158.119L157 158.239V142.039L157.66 142.159C157.66 144.159 158.04 145.619 158.8 146.539C159.64 147.539 163.56 148.039 170.56 148.039ZM186.28 138.312C190.16 138.312 193.12 137.372 195.16 135.492C197.2 133.572 198.22 131.232 198.22 128.472C198.22 125.712 197.56 123.452 196.24 121.692C194.88 119.932 192.76 119.052 189.88 119.052C187.28 119.052 184.96 120.432 182.92 123.192C182.04 124.392 181.18 125.732 180.34 127.212C179.46 128.692 178.56 130.172 177.64 131.652C176.72 133.132 175.76 134.472 174.76 135.672C172.44 138.432 169.74 139.812 166.66 139.812C163.54 139.812 161.06 138.692 159.22 136.452C157.38 134.172 156.46 131.172 156.46 127.452C156.46 123.692 157.28 120.212 158.92 117.012C160.92 117.012 164.36 117.312 169.24 117.912L169 118.812C165.24 118.812 162.44 119.732 160.6 121.572C158.72 123.412 157.78 125.532 157.78 127.932C157.78 130.292 158.48 132.192 159.88 133.632C161.24 135.072 162.86 135.792 164.74 135.792C166.62 135.792 168.24 135.292 169.6 134.292C170.92 133.252 172.02 131.972 172.9 130.452C173.78 128.892 174.76 127.212 175.84 125.412C176.88 123.612 177.92 121.952 178.96 120.432C179.96 118.872 181.28 117.592 182.92 116.592C184.56 115.552 186.4 115.032 188.44 115.032C192.12 115.032 194.9 116.352 196.78 118.992C198.66 121.592 199.6 124.732 199.6 128.412C199.6 130.452 199.28 132.552 198.64 134.712C198 136.832 197.06 138.572 195.82 139.932C193.26 139.932 190.02 139.692 186.1 139.212L186.28 138.312ZM157 115.009V80.449H165.64L165.52 81.049C160.64 81.049 158.2 85.889 158.2 95.569H185.44C191.36 95.569 194.96 95.229 196.24 94.549C196.72 94.309 197.14 93.889 197.5 93.289C197.86 92.689 198.08 92.049 198.16 91.369C198.24 90.689 198.28 89.749 198.28 88.549L199 88.429V106.909L198.28 106.789C198.28 105.589 198.26 104.649 198.22 103.969C198.14 103.249 197.9 102.609 197.5 102.049C197.1 101.449 196.68 101.029 196.24 100.789C195.8 100.509 195.02 100.269 193.9 100.069C192.54 99.869 189.72 99.769 185.44 99.769H158.2C158.2 109.449 160.64 114.289 165.52 114.289L165.64 115.009H157ZM198.28 59.8376C198.28 58.3176 198.16 57.2576 197.92 56.6576C197.68 56.0176 197.06 55.6976 196.06 55.6976C195.06 55.6976 191.66 56.7576 185.86 58.8776V77.1776C190.94 78.8976 194.14 79.7576 195.46 79.7576C196.74 79.7576 197.54 79.4376 197.86 78.7976C198.14 78.1176 198.28 76.9176 198.28 75.1976L199 75.0776V88.5776L198.28 88.4576C198.28 87.2976 198.18 86.3976 197.98 85.7576C197.78 85.0776 197.26 84.3576 196.42 83.5976C195.54 82.7976 194.28 82.0376 192.64 81.3176C191 80.5976 188.7 79.7376 185.74 78.7376L170.32 73.3976C164.88 71.5176 161.58 70.5776 160.42 70.5776C159.26 70.5776 158.52 70.8576 158.2 71.4176C157.84 71.9776 157.66 73.0576 157.66 74.6576L157 74.7776V64.8776L185.74 54.2576C190.5 52.4576 193.52 51.2576 194.8 50.6576C196.08 50.0176 196.9 49.4176 197.26 48.8576C197.94 47.8576 198.28 46.5976 198.28 45.0776L199 44.9576V59.9576L198.28 59.8376ZM160.24 68.2376L184.42 76.6976V59.3576L160.24 68.2376Z" fill="#EF0B6A"/>
</svg>
