<svg width="280" height="104" viewBox="0 0 280 104" fill="none" xmlns="http://www.w3.org/2000/svg">
<path d="M37 69.2C26.7333 69.2 18.7667 66.3 13.1 60.5C7.5 54.7 4.7 46.5333 4.7 36C4.7 28.8667 6 22.6667 8.6 17.4C11.2667 12.0667 15.0333 7.96666 19.9 5.1C24.8333 2.23333 30.6667 0.799995 37.4 0.799995C40.4 0.799995 42.8667 1.06666 44.8 1.6C46.7333 2.06667 48.7333 2.7 50.8 3.5C51.1333 3.63333 51.6667 3.83333 52.4 4.09999C53.2 4.36666 53.9 4.49999 54.5 4.49999C55.5667 4.49999 56.3 4.03333 56.7 3.1L57.2 2H59.7L60.7 21.1H58.2C57.3333 16.7 55.3667 12.9 52.3 9.7C49.2333 6.43333 44.9333 4.8 39.4 4.8C31.4667 4.8 25.9667 7.96666 22.9 14.3C19.9 20.5667 18.4 27.4333 18.4 34.9C18.4 40.2333 19.1333 45.2 20.6 49.8C22.1333 54.3333 24.4333 58.0333 27.5 60.9C30.6333 63.7 34.5 65.1 39.1 65.1C40.8333 65.1 42.6 64.9 44.4 64.5C46.2 64.1 47.7667 63.6 49.1 63V46.9C49.1 45.3667 48.9333 44.2 48.6 43.4C48.2667 42.6 47.6 42.0333 46.6 41.7C45.6 41.3 44.1 41.1 42.1 41.1H40.3V38H67.2V41.1H65.3C63.6333 41.1 62.5333 41.5333 62 42.4C61.5333 43.2 61.3 44.7 61.3 46.9V68H58.7C58.2333 66 57.1333 65 55.4 65C54.8 65 54.1667 65.1333 53.5 65.4C52.8333 65.6 52.1333 65.8667 51.4 66.2C49.3333 67.1333 47.2667 67.8667 45.2 68.4C43.1333 68.9333 40.4 69.2 37 69.2Z" fill="#EE0C68"/>
<path d="M90.6968 76.4719C91.2296 77.8484 91.8068 78.7586 92.4284 79.2026C93.0501 79.6023 94.1823 79.8021 95.8252 79.8021V82H77.8422V79.8021H80.8394C81.461 79.8021 81.9273 79.6467 82.2381 79.3359C82.5489 79.025 82.7043 78.6254 82.7043 78.137C82.7043 77.7818 82.6377 77.4043 82.5045 77.0047L78.6415 65.8153H65.0543L61.3245 77.2045C61.1913 77.6486 61.1247 78.0482 61.1247 78.4034C61.1247 79.3359 61.7241 79.8021 62.923 79.8021H66.1866V82H52.333V79.8021C54.0647 79.8021 55.2636 79.5579 55.9296 79.0694C56.5957 78.5366 57.1951 77.5598 57.7279 76.1389L71.5815 38.0416H77.2428L90.6968 76.4719ZM77.9088 63.6174L71.8479 45.9008H71.6481L65.787 63.6174H77.9088Z" fill="white"/>
<path d="M273.38 76.5172C273.908 77.8824 274.481 78.7852 275.097 79.2256C275.714 79.6219 276.837 79.8201 278.466 79.8201V82H260.63V79.8201H263.603C264.22 79.8201 264.682 79.666 264.99 79.3577C265.299 79.0494 265.453 78.6531 265.453 78.1686C265.453 77.8163 265.387 77.442 265.254 77.0457L261.423 65.948H247.947L244.248 77.2438C244.116 77.6842 244.05 78.0806 244.05 78.4329C244.05 79.3577 244.644 79.8201 245.833 79.8201H249.07V82H235.33V79.8201C237.048 79.8201 238.237 79.5779 238.897 79.0935C239.558 78.565 240.153 77.5961 240.681 76.1869L254.421 38.4019H260.036L273.38 76.5172ZM260.696 63.7681L254.685 46.1967H254.487L248.674 63.7681H260.696Z" fill="white"/>
<path d="M174.931 79.8021C176.573 79.8021 177.75 79.7133 178.461 79.5357C179.171 79.3137 179.637 78.9584 179.859 78.47C180.081 77.9816 180.192 77.1823 180.192 76.0723V44.0359C180.192 42.8814 180.081 42.06 179.859 41.5716C179.637 41.0831 179.171 40.7501 178.461 40.5725C177.75 40.3505 176.573 40.2395 174.931 40.2395V38.0416H195.511C200.307 38.0416 203.925 38.974 206.368 40.8389C208.81 42.7038 210.031 45.368 210.031 48.8314C210.031 51.9395 209.098 54.4483 207.233 56.3576C205.368 58.2225 202.86 59.3991 199.707 59.8876V60.0208C202.504 60.6868 204.48 61.9301 205.635 63.7506C206.789 65.5267 207.611 68.0798 208.099 71.41L208.299 72.7421C208.61 74.8734 209.254 76.5829 210.231 77.8706C211.252 79.1582 212.628 79.8021 214.36 79.8021V82H203.504C202.26 81.0231 201.306 78.9806 200.64 75.8725L198.641 66.6811C198.286 64.9051 197.576 63.6174 196.51 62.8181C195.445 61.9745 193.935 61.5527 191.981 61.5527H188.318V76.0723C188.318 77.1823 188.429 78.0038 188.651 78.5366C188.873 79.025 189.339 79.3581 190.05 79.5357C190.76 79.7133 191.915 79.8021 193.513 79.8021V82H174.931V79.8021ZM192.314 58.8885C195.422 58.8885 197.709 58.1337 199.174 56.624C200.684 55.1143 201.439 52.8276 201.439 49.7638C201.439 46.6556 200.684 44.3689 199.174 42.9036C197.665 41.3939 195.378 40.6391 192.314 40.6391C190.671 40.6391 189.583 40.8611 189.051 41.3051C188.562 41.7048 188.318 42.393 188.318 43.3699V58.8885H192.314Z" fill="white"/>
<path d="M134.114 80.6644C135.86 80.6644 137.11 80.57 137.865 80.3813C138.62 80.1454 139.116 79.7679 139.352 79.2489C139.588 78.7298 139.705 77.8805 139.705 76.7009V42.6576C139.705 41.4308 139.588 40.5579 139.352 40.0389C139.116 39.4726 138.62 39.0952 137.865 38.9064C137.11 38.7177 135.86 38.6233 134.114 38.6233V36.2877H168.724V48.1073H166.884C166.317 45.7009 165.704 43.8844 165.043 42.6576C164.383 41.3836 163.392 40.4635 162.071 39.8973C160.797 39.3311 158.957 39.048 156.55 39.048H151.03C149.944 39.048 149.213 39.2131 148.836 39.5434C148.505 39.8737 148.34 40.5107 148.34 41.4544V57.0251H155.347C156.998 57.0251 158.225 56.86 159.027 56.5297C159.877 56.1522 160.466 55.5624 160.797 54.7603C161.174 53.9582 161.528 52.7078 161.858 51.0092H163.628V66.0137H161.858C161.528 64.3151 161.174 63.0883 160.797 62.3334C160.466 61.5784 159.877 61.0358 159.027 60.7055C158.225 60.328 156.998 60.1393 155.347 60.1393H148.34V75.5685C148.34 76.984 148.505 77.9985 148.836 78.6119C149.213 79.2253 149.968 79.6499 151.1 79.8858C152.28 80.1218 154.215 80.2397 156.904 80.2397C159.594 80.2397 161.693 79.9094 163.203 79.2489C164.76 78.5883 165.963 77.5502 166.813 76.1347C167.662 74.7192 168.464 72.6667 169.219 69.9772H170.989L170.139 83H134.114V80.6644Z" fill="white"/>
<path d="M96.9065 79.8201C98.536 79.8201 99.703 79.732 100.408 79.5559C101.112 79.3357 101.575 78.9834 101.795 78.4989C102.015 78.0145 102.125 77.2218 102.125 76.1209V44.3471C102.125 43.2021 102.015 42.3874 101.795 41.9029C101.575 41.4185 101.112 41.0882 100.408 40.9121C99.703 40.6919 98.536 40.5818 96.9065 40.5818V38.4019H115.667V40.5818C113.905 40.5818 112.65 40.6698 111.902 40.846C111.197 41.0222 110.735 41.3745 110.514 41.9029C110.294 42.3874 110.184 43.2021 110.184 44.3471V74.4694C110.184 76.0548 110.382 77.1998 110.779 77.9044C111.219 78.565 111.88 78.9834 112.76 79.1595C113.641 79.2916 115.161 79.3577 117.318 79.3577C119.829 79.3577 121.766 79.0714 123.131 78.4989C124.541 77.9264 125.642 77.0016 126.434 75.7245C127.227 74.4034 127.954 72.4877 128.614 69.9775H130.332L129.605 82H96.9065V79.8201Z" fill="white"/>
<path d="M214.907 79.8201C216.536 79.8201 217.703 79.732 218.408 79.5559C219.112 79.3357 219.575 78.9834 219.795 78.4989C220.015 78.0145 220.125 77.2218 220.125 76.1209V44.4131C220.125 43.2681 220.015 42.4534 219.795 41.969C219.575 41.4405 219.112 41.0882 218.408 40.9121C217.703 40.6919 216.536 40.5818 214.907 40.5818V38.4019H233.337V40.5818C231.707 40.5818 230.54 40.6919 229.836 40.9121C229.131 41.0882 228.669 41.4405 228.448 41.969C228.272 42.4534 228.184 43.2681 228.184 44.4131V76.1209C228.184 77.2218 228.294 78.0365 228.514 78.565C228.735 79.0494 229.197 79.3797 229.902 79.5559C230.606 79.732 231.751 79.8201 233.337 79.8201V82H214.907V79.8201ZM223.626 21.1608C224.023 20.28 224.463 19.6635 224.947 19.3112C225.476 18.9589 226.07 18.7827 226.731 18.7827C227.568 18.7827 228.294 19.069 228.911 19.6415C229.527 20.214 229.836 20.8966 229.836 21.6892C229.836 22.1737 229.726 22.6361 229.505 23.0765C229.329 23.4728 228.911 24.0673 228.25 24.86L221.38 32.3245H218.474L223.626 21.1608Z" fill="white"/>
</svg>
