<svg width="21" height="20" viewBox="0 0 21 20" fill="none" xmlns="http://www.w3.org/2000/svg">
<path fill-rule="evenodd" clip-rule="evenodd" d="M6.12545 0.0596729C7.19211 0.0116031 7.53295 0 10.2488 0C12.9646 0 13.3054 0.0116031 14.3721 0.0596729C15.9971 0.133435 17.4246 0.529597 18.5704 1.66918C19.7163 2.80877 20.1146 4.22849 20.1888 5.84463C20.2371 6.90549 20.2488 7.24446 20.2488 9.94549C20.2488 12.6465 20.2371 12.9855 20.1888 14.0463C20.1146 15.6625 19.7163 17.0822 18.5704 18.2218C17.4246 19.3614 15.9971 19.7575 14.3721 19.8313C13.3054 19.8794 12.9646 19.891 10.2488 19.891C7.53295 19.891 7.19211 19.8794 6.12545 19.8313C4.50045 19.7575 3.07295 19.3614 1.92711 18.2218C0.781279 17.0822 0.382946 15.6625 0.308779 14.0463C0.260446 12.9855 0.248779 12.6465 0.248779 9.94549C0.248779 7.24446 0.260446 6.90549 0.308779 5.84463C0.382946 4.22849 0.781279 2.80877 1.92711 1.66918C3.07295 0.529597 4.50045 0.133435 6.12545 0.0596729ZM14.2887 1.85001C13.2346 1.80194 12.9179 1.79199 10.2479 1.79199C7.57789 1.79199 7.26123 1.80194 6.20706 1.85001C5.06873 1.90139 4.01289 2.12848 3.20039 2.93655C2.38789 3.74462 2.15956 4.7947 2.10789 5.92683C2.05956 6.97525 2.04956 7.29019 2.04956 9.94564C2.04956 12.6011 2.05956 12.916 2.10789 13.9644C2.15956 15.0966 2.38789 16.1467 3.20039 16.9547C4.01289 17.7628 5.06873 17.9899 6.20706 18.0413C7.26123 18.0893 7.57789 18.0993 10.2479 18.0993C12.9179 18.0993 13.2346 18.0893 14.2887 18.0413C15.4271 17.9899 16.4829 17.7628 17.2954 16.9547C18.1079 16.1467 18.3362 15.0966 18.3879 13.9644C18.4362 12.916 18.4462 12.6011 18.4462 9.94564C18.4462 7.29019 18.4362 6.97525 18.3879 5.92683C18.3362 4.7947 18.1079 3.74462 17.2954 2.93655C16.4829 2.12848 15.4271 1.90139 14.2887 1.85001ZM5.11206 9.9449C5.11206 7.12453 7.41122 4.83789 10.2471 4.83789C13.0829 4.83789 15.382 7.12453 15.382 9.9449C15.382 12.7653 13.0829 15.0519 10.2471 15.0519C7.41122 15.0519 5.11206 12.7653 5.11206 9.9449ZM6.91284 9.94504C6.91284 11.7758 8.40534 13.2602 10.2462 13.2602C12.087 13.2602 13.5795 11.7758 13.5795 9.94504C13.5795 8.11425 12.087 6.62988 10.2462 6.62988C8.40534 6.62988 6.91284 8.11425 6.91284 9.94504ZM16.7855 4.63682C16.7855 5.29595 16.2482 5.83028 15.5855 5.83028C14.9228 5.83028 14.3855 5.29595 14.3855 4.63682C14.3855 3.97769 14.9228 3.44336 15.5855 3.44336C16.2482 3.44336 16.7855 3.97769 16.7855 4.63682Z" fill="#E6ECEC"/>
</svg>
