<svg width="20" height="16" viewBox="0 0 20 16" fill="none" xmlns="http://www.w3.org/2000/svg">
<path d="M17.2833 4.05368L17.2953 4.56028C17.2953 9.7334 13.3382 15.6933 6.10125 15.6933C3.88005 15.6933 1.8126 15.0457 0.0708008 13.9351C0.378447 13.9708 0.692008 13.9907 1.00964 13.9907C2.85335 13.9907 4.54922 13.3649 5.89552 12.316C4.1737 12.2842 2.72148 11.1518 2.22012 9.59832C2.4618 9.644 2.70551 9.6659 2.96118 9.6659C3.32074 9.6659 3.66827 9.62022 3.99786 9.53082C2.19811 9.16923 0.841823 7.58991 0.841823 5.69469V5.64503C1.37314 5.93904 1.97838 6.11385 2.62357 6.13574C1.56889 5.43447 0.873757 4.23653 0.873757 2.87966C0.873757 2.16251 1.06753 1.49104 1.40508 0.912947C3.34466 3.28098 6.24502 4.83847 9.51494 5.00139C9.44699 4.71529 9.41309 4.41533 9.41309 4.10942C9.41309 1.94999 11.1749 0.197754 13.3482 0.197754C14.4787 0.197754 15.5015 0.672524 16.2205 1.4334C17.1154 1.25656 17.9584 0.930788 18.7194 0.483792C18.4258 1.39765 17.8026 2.16447 16.9896 2.64917C17.7826 2.55579 18.5437 2.3432 19.2488 2.03331C18.7215 2.81601 18.0523 3.50539 17.2833 4.05368Z" fill="#E6ECEC"/>
</svg>
